<svg xmlns="http://www.w3.org/2000/svg" width="1169.446" height="1140.856" viewBox="0 0 1169.446 1140.856">
  <g id="Group_1423" data-name="Group 1423" transform="translate(-68.562 -82.478)">
    <g id="Group_1296" data-name="Group 1296" transform="translate(172.093 756.545)">
      <path id="Path_1217" data-name="Path 1217" d="M461.793,730.433H222.129a39.161,39.161,0,0,1-15.659-9.5c-15.537-15.7-20.253-26.721-20.279-26.666.042.525,45.438,13.4,39.73,3.248-5.441-9.417-44-9.169-54.658-22.7-10.663-13.08-23.556-37.035-23.459-37.064-.077.357,33.423,21.467,32.734,11.161-.676-9.545-38.983-26.37-47.408-42.83-8.393-15.569,33.224,12.546,37.6,7.337,4.166-4.04-39.988-32.634-48.641-46.9-9.04-13.544-10.511-39.855-4.246-34.1,6.188,5.7,16.316,14.87,16.312,8.766-.286-5.7-26.6-42.392-26.363-54.652-.206-11.506,28.115,21.161,30.239,16.8,1.761-3.471-32.419-37.245-35.6-57-3.509-19.152-.785-35.693.9-35.39,1.565.435,17.153,25.652,20.781,24.547,3.052-.583-5.009-118.453,50.692-143.628,46.262,29.946,88.725,107.069,88.934,107.024,3.345-1.008,7.314-24.11,8.943-24.831,1.491-.766,9.745,9.22,14.954,22.317,4.736,12.819-5.016,50.077-.821,51.387,3.528.84,9.082-32.37,15.273-25.674,5.579,6.4,6.352,39.569,10.524,42.4,3.8,2.733,5.418-7.7,6.828-13.914,1.413-6.123,15.5,6.278,17.832,16.869,1.693,10.418-5.151,51.294,1.207,49.668,5.46-2.147,11.773-39.707,17.529-29.026,5.145,10.147-3.532,42.592,4.179,45.364,7.134,2.379,8.985-27,9.262-26.869-.045.051,10.167,14.371,15.237,24.071,4.694,9.484-11.052,40.541-4.568,46.12,5.895,5.09,12.4-32.692,12.829-32.448.045,0,6.262,4.723,13.222,17.381,7.021,12.546-3.651,28.5,2.907,40.589,6.677,11.957,19.068-7.105,19.081-7.047C466.358,650.046,468.061,698.619,461.793,730.433Z" transform="translate(-100.721 -291.858)" fill="#7aa9ff" fill-rule="evenodd"/>
    </g>
    <g id="Group_1297" data-name="Group 1297" transform="translate(83.252 820.378)">
      <path id="Path_1218" data-name="Path 1218" d="M522.99,617.518,299.4,703.809a39.182,39.182,0,0,1-18.028-3.226c-20.143-9.053-28.517-17.636-28.517-17.574.229.473,47.215-3.854,38.236-11.274-8.467-6.825-44.353,7.285-59.168-1.5-14.658-8.361-35.31-26.067-35.233-26.131.058.361,38.912,8,34.56-1.375-4.069-8.657-45.866-10.563-59.648-22.886-13.438-11.5,35.513-.258,37.715-6.69,2.431-5.27-49.056-16.052-62.265-26.244-13.312-9.378-24.158-33.4-16.238-30.284,7.823,3.087,20.572,8,18.373,2.3-2.318-5.212-40.084-29.972-44.272-41.494-4.336-10.663,33.848,9.619,34.257,4.781.393-3.87-43.651-23.073-53.731-40.358-10.17-16.6-13.586-33.014-11.9-33.34,1.616-.158,25.236,17.755,28.224,15.417,2.637-1.645-47.321-108.708-4.42-152.249,53.943,11.284,121.324,67.944,121.5,67.828,2.756-2.147-1.858-25.127-.6-26.386,1.114-1.252,12.411,5.093,21.985,15.433,9.037,10.257,13.351,48.525,17.739,48.236,3.6-.483-3.184-33.468,5-29.447,7.511,3.963,20.172,34.627,25.082,35.76,4.533,1.182,2.282-9.133,1.365-15.44-.889-6.22,16.721.277,22.709,9.32,5.325,9.108,13.66,49.707,19.007,45.9,4.32-3.969-3.313-41.282,5.9-33.391,8.451,7.614,12.04,41.008,20.227,40.818,7.517-.351-1.339-28.43-1.03-28.4-.023.061,14.658,9.748,22.883,16.969,7.794,7.16,4.282,41.8,12.343,44.672,7.33,2.627-.2-34.965.286-34.891.042-.013,7.54,2.154,18.592,11.458,11.068,9.172,6.854,27.9,17.327,36.82,10.537,8.75,15.231-13.5,15.266-13.444C498.3,540.881,517.381,585.585,522.99,617.518Z" transform="translate(-73.125 -311.686)" fill="#6fa0fd" fill-rule="evenodd"/>
    </g>
    <g id="Group_1298" data-name="Group 1298" transform="translate(710.671 695.703)">
      <path id="Path_1219" data-name="Path 1219" d="M271.166,771.4H543.548a44.494,44.494,0,0,0,17.8-10.794C579,742.762,584.363,730.238,584.392,730.3c-.051.6-51.642,15.234-45.158,3.693,6.184-10.7,50.009-10.421,62.121-25.8,12.121-14.864,26.772-42.09,26.666-42.122.084.406-37.988,24.4-37.2,12.684.766-10.849,44.3-29.969,53.876-48.677,9.542-17.694-37.756,14.258-42.727,8.338-4.732-4.594,45.444-37.09,55.283-53.3,10.276-15.392,11.947-45.3,4.826-38.758-7.034,6.477-18.544,16.9-18.54,9.967.325-6.477,30.236-48.181,29.962-62.114.235-13.077-31.952,24.049-34.363,19.084-2-3.94,36.839-42.325,40.454-64.776,3.992-21.763.9-40.564-1.027-40.219-1.777.493-19.49,29.154-23.617,27.9-3.47-.66,5.692-134.62-57.613-163.234-52.575,34.035-100.836,121.688-101.071,121.633-3.8-1.143-8.316-27.4-10.163-28.218-1.693-.872-11.075,10.476-17,25.362-5.383,14.571,5.7,56.912.934,58.4-4.011.956-10.321-36.787-17.355-29.174-6.342,7.276-7.221,44.965-11.963,48.181-4.32,3.1-6.155-8.753-7.762-15.814-1.6-6.957-17.616,7.134-20.266,19.171-1.922,11.838,5.856,58.3-1.368,56.448-6.21-2.44-13.38-45.126-19.925-32.989-5.846,11.532,4.015,48.406-4.749,51.555-8.11,2.708-10.212-30.687-10.527-30.532.052.055-11.554,16.332-17.317,27.358-5.334,10.775,12.562,46.069,5.193,52.414-6.7,5.785-14.1-37.155-14.584-36.878-.048,0-7.112,5.367-15.021,19.757-7.984,14.252,4.15,32.383-3.306,46.127-7.588,13.592-21.67-8.077-21.689-8.01C265.979,680.042,264.044,735.248,271.166,771.4Z" transform="translate(-268.015 -272.959)" fill="#7aa9ff" fill-rule="evenodd"/>
    </g>
    <g id="Group_1324" data-name="Group 1324" transform="translate(901.629 599.132)">
      <g id="Group_1299" data-name="Group 1299" transform="translate(62.236 38.85)">
        <path id="Path_1220" data-name="Path 1220" d="M473.692,257.629c-25.169,28.591-45.013,62.88-62.32,96.574a613.951,613.951,0,0,0-61.441,193.2l-3.268-1.172a627.67,627.67,0,0,1,59.889-190.061c17.555-35.123,38.236-70.884,64.329-100.518C472.327,254.007,475.16,255.965,473.692,257.629Z" transform="translate(-346.663 -255.03)" fill="#3f79da" fill-rule="evenodd"/>
      </g>
      <g id="Group_1300" data-name="Group 1300" transform="translate(5.965 277.121)">
        <path id="Path_1221" data-name="Path 1221" d="M386.321,382.181s-5.882-31.971-57.137-53.139C329.184,329.042,343.826,368.582,386.321,382.181Z" transform="translate(-329.184 -329.042)" fill="#3f79da" fill-rule="evenodd"/>
      </g>
      <g id="Group_1301" data-name="Group 1301" transform="translate(0 246.242)">
        <path id="Path_1222" data-name="Path 1222" d="M394.335,379.053s-7.492-35.223-67-59.6C327.331,319.45,345.082,363.175,394.335,379.053Z" transform="translate(-327.331 -319.45)" fill="#3f79da" fill-rule="evenodd"/>
      </g>
      <g id="Group_1302" data-name="Group 1302" transform="translate(13.135 218.021)">
        <path id="Path_1223" data-name="Path 1223" d="M389.185,379.266s-2.369-35.928-57.774-68.582C331.411,310.684,342.717,356.5,389.185,379.266Z" transform="translate(-331.411 -310.684)" fill="#3f79da" fill-rule="evenodd"/>
      </g>
      <g id="Group_1303" data-name="Group 1303" transform="translate(28.221 191.178)">
        <path id="Path_1224" data-name="Path 1224" d="M386.393,376.584s1.4-35.979-50.3-74.238C336.1,302.346,342.555,349.091,386.393,376.584Z" transform="translate(-336.097 -302.346)" fill="#3f79da" fill-rule="evenodd"/>
      </g>
      <g id="Group_1304" data-name="Group 1304" transform="translate(24.985 149.523)">
        <path id="Path_1225" data-name="Path 1225" d="M396.25,376.487s.679-41.513-61.158-87.08C335.092,289.407,343.942,343.563,396.25,376.487Z" transform="translate(-335.092 -289.407)" fill="#3f79da" fill-rule="evenodd"/>
      </g>
      <g id="Group_1305" data-name="Group 1305" transform="translate(33.121 117.377)">
        <path id="Path_1226" data-name="Path 1226" d="M401,369.805s.753-43.12-63.379-90.383C337.619,279.422,346.746,335.658,401,369.805Z" transform="translate(-337.619 -279.422)" fill="#3f79da" fill-rule="evenodd"/>
      </g>
      <g id="Group_1306" data-name="Group 1306" transform="translate(55.218 84.305)">
        <path id="Path_1227" data-name="Path 1227" d="M392.673,368.463s7.6-42.45-48.19-99.314C344.483,269.149,344.541,326.122,392.673,368.463Z" transform="translate(-344.483 -269.149)" fill="#3f79da" fill-rule="evenodd"/>
      </g>
      <g id="Group_1307" data-name="Group 1307" transform="translate(84.981 58.045)">
        <path id="Path_1228" data-name="Path 1228" d="M385.451,355.515s11.847-37.045-31.263-94.523C354.188,260.992,347.46,311.938,385.451,355.515Z" transform="translate(-353.728 -260.992)" fill="#3f79da" fill-rule="evenodd"/>
      </g>
      <g id="Group_1308" data-name="Group 1308" transform="translate(101.754 35.451)">
        <path id="Path_1229" data-name="Path 1229" d="M390.774,341.6s9.252-33.433-31.691-87.631C359.083,253.974,354.959,300.313,390.774,341.6Z" transform="translate(-358.938 -253.974)" fill="#3f79da" fill-rule="evenodd"/>
      </g>
      <g id="Group_1309" data-name="Group 1309" transform="translate(118.579 17.536)">
        <path id="Path_1230" data-name="Path 1230" d="M394.477,324.881s6.381-28.285-30.3-76.472C364.176,248.409,362.644,287.972,394.477,324.881Z" transform="translate(-364.164 -248.409)" fill="#3f79da" fill-rule="evenodd"/>
      </g>
      <g id="Group_1310" data-name="Group 1310" transform="translate(143.897 4.996)">
        <path id="Path_1231" data-name="Path 1231" d="M388.49,318.379s9-23.443-15.6-73.865C372.889,244.514,366.509,278.938,388.49,318.379Z" transform="translate(-372.029 -244.514)" fill="#3f79da" fill-rule="evenodd"/>
      </g>
      <g id="Group_1311" data-name="Group 1311" transform="translate(163.453)">
        <path id="Path_1232" data-name="Path 1232" d="M388.5,300.212s9.9-19.255-8.277-57.25C380.218,242.962,371.819,270.7,388.5,300.212Z" transform="translate(-378.103 -242.962)" fill="#3f79da" fill-rule="evenodd"/>
      </g>
      <g id="Group_1312" data-name="Group 1312" transform="translate(183.754 0.792)">
        <path id="Path_1233" data-name="Path 1233" d="M384.409,286.756s27.326-4.8,31.984-43.548C416.393,243.208,385.455,255.96,384.409,286.756Z" transform="translate(-384.409 -243.208)" fill="#3f79da" fill-rule="evenodd"/>
      </g>
      <g id="Group_1313" data-name="Group 1313" transform="translate(174.74 39.219)">
        <path id="Path_1234" data-name="Path 1234" d="M437.619,256.453s-20.211-7.746-56.01,14.448C381.609,270.9,410.094,276.236,437.619,256.453Z" transform="translate(-381.609 -255.144)" fill="#3f79da" fill-rule="evenodd"/>
      </g>
      <g id="Group_1314" data-name="Group 1314" transform="translate(62.977 317.191)">
        <path id="Path_1235" data-name="Path 1235" d="M346.893,352.34s24.879-20.929,77.9-4.655C424.792,347.684,388.339,368.881,346.893,352.34Z" transform="translate(-346.893 -341.488)" fill="#3f79da" fill-rule="evenodd"/>
      </g>
      <g id="Group_1315" data-name="Group 1315" transform="translate(71.595 268.389)">
        <path id="Path_1236" data-name="Path 1236" d="M349.57,344.791s24.686-26.215,88.2-16.168C437.774,328.623,399.908,356.786,349.57,344.791Z" transform="translate(-349.57 -326.329)" fill="#3f79da" fill-rule="evenodd"/>
      </g>
      <g id="Group_1316" data-name="Group 1316" transform="translate(77.097 237.726)">
        <path id="Path_1237" data-name="Path 1237" d="M351.279,342.373s21.811-28.655,86.027-25.294C437.306,317.079,402.592,349.041,351.279,342.373Z" transform="translate(-351.279 -316.805)" fill="#3f79da" fill-rule="evenodd"/>
      </g>
      <g id="Group_1317" data-name="Group 1317" transform="translate(85.197 206.353)">
        <path id="Path_1238" data-name="Path 1238" d="M353.795,335.716s25.887-32.461,102.581-28.285C456.376,307.428,415.1,343.587,353.795,335.716Z" transform="translate(-353.795 -307.06)" fill="#3f79da" fill-rule="evenodd"/>
      </g>
      <g id="Group_1318" data-name="Group 1318" transform="translate(95.634 175.468)">
        <path id="Path_1239" data-name="Path 1239" d="M357.037,327.27s26.849-33.745,106.4-29.422C463.433,297.849,420.619,335.435,357.037,327.27Z" transform="translate(-357.037 -297.466)" fill="#3f79da" fill-rule="evenodd"/>
      </g>
      <g id="Group_1319" data-name="Group 1319" transform="translate(104.639 135.911)">
        <path id="Path_1240" data-name="Path 1240" d="M359.834,331.154s21.141-37.592,100.357-45.975C460.191,285.179,423.9,329.1,359.834,331.154Z" transform="translate(-359.834 -285.179)" fill="#3f79da" fill-rule="evenodd"/>
      </g>
      <g id="Group_1320" data-name="Group 1320" transform="translate(118.372 106.892)">
        <path id="Path_1241" data-name="Path 1241" d="M364.1,319.311s18.427-34.251,89.723-43.146C453.823,276.165,421.839,316.384,364.1,319.311Z" transform="translate(-364.1 -276.165)" fill="#3f79da" fill-rule="evenodd"/>
      </g>
      <g id="Group_1321" data-name="Group 1321" transform="translate(134.871 72.052)">
        <path id="Path_1242" data-name="Path 1242" d="M369.225,312.8s14.133-31.685,80.2-47.46C449.422,265.343,423.13,303.721,369.225,312.8Z" transform="translate(-369.225 -265.343)" fill="#3f79da" fill-rule="evenodd"/>
      </g>
      <g id="Group_1322" data-name="Group 1322" transform="translate(160.765 52.974)">
        <path id="Path_1243" data-name="Path 1243" d="M377.268,284.18s15.434-19.809,71.321-24.763C448.589,259.417,422.4,282.651,377.268,284.18Z" transform="translate(-377.268 -259.417)" fill="#3f79da" fill-rule="evenodd"/>
      </g>
      <g id="Group_1323" data-name="Group 1323" transform="translate(66.28 294.544)">
        <path id="Path_1244" data-name="Path 1244" d="M347.919,345.493s28.188-22.413,89.614-3.367C437.533,342.126,396.022,364.574,347.919,345.493Z" transform="translate(-347.919 -334.454)" fill="#3f79da" fill-rule="evenodd"/>
      </g>
    </g>
    <g id="Group_1325" data-name="Group 1325" transform="translate(726.734 756.545)">
      <path id="Path_1245" data-name="Path 1245" d="M273,639.438l254.113,98.068a44.52,44.52,0,0,0,20.491-3.664c22.9-10.289,32.409-20.043,32.412-19.976-.261.541-53.66-4.378-43.455-12.813,9.619-7.755,50.405,8.284,67.243-1.7,16.657-9.5,40.129-29.628,40.039-29.7-.064.412-44.221,9.085-39.273-1.561,4.623-9.842,52.125-12,67.79-26.012,15.27-13.074-40.361-.293-42.866-7.6-2.759-5.988,55.753-18.241,70.765-29.824,15.131-10.659,27.458-37.956,18.46-34.421-8.892,3.509-23.382,9.091-20.884,2.624,2.634-5.927,45.554-34.064,50.315-47.16,4.929-12.118-38.468,10.93-38.932,5.431-.448-4.394,49.61-26.221,61.068-45.866,11.557-18.869,15.437-37.522,13.521-37.892-1.835-.18-28.681,20.179-32.078,17.523-3-1.867,53.779-123.546,5.022-173.03-61.306,12.819-137.885,77.219-138.088,77.084-3.135-2.437,2.109-28.556.679-29.985-1.268-1.423-14.1,5.785-24.989,17.539-10.27,11.657-15.173,55.151-20.16,54.822-4.085-.55,3.622-38.04-5.685-33.468-8.535,4.5-22.925,39.353-28.507,40.641-5.148,1.342-2.595-10.379-1.548-17.545,1.008-7.07-19,.312-25.806,10.591-6.056,10.35-15.527,56.493-21.605,52.17-4.913-4.514,3.767-46.919-6.709-37.953-9.607,8.654-13.682,46.606-22.993,46.391-8.541-.4,1.523-32.309,1.175-32.28.023.071-16.66,11.081-26.006,19.29-8.86,8.135-4.868,47.5-14.03,50.769-8.335,2.984.225-39.74-.325-39.656-.048-.016-8.57,2.447-21.128,13.022-12.581,10.424-7.791,31.707-19.693,41.845-11.976,9.944-17.31-15.337-17.349-15.279C301.058,552.335,279.379,603.143,273,639.438Z" transform="translate(-273.005 -291.858)" fill="#6fa0fd" fill-rule="evenodd"/>
    </g>
    <g id="Group_1351" data-name="Group 1351" transform="translate(185.353 644.808)">
      <g id="Group_1326" data-name="Group 1326" transform="translate(42.41 38.85)">
        <path id="Path_1246" data-name="Path 1246" d="M118.424,271.813c25.169,28.594,45.013,62.884,62.32,96.577a613.915,613.915,0,0,1,61.441,193.2l3.268-1.175a627.761,627.761,0,0,0-59.889-190.061c-17.555-35.123-38.236-70.88-64.329-100.518C119.789,268.195,116.956,270.155,118.424,271.813Z" transform="translate(-118.014 -269.218)" fill="#3f79da" fill-rule="evenodd"/>
      </g>
      <g id="Group_1327" data-name="Group 1327" transform="translate(168.984 277.122)">
        <path id="Path_1247" data-name="Path 1247" d="M157.33,396.368s5.882-31.971,57.137-53.138C214.467,343.23,199.829,382.77,157.33,396.368Z" transform="translate(-157.33 -343.23)" fill="#3f79da" fill-rule="evenodd"/>
      </g>
      <g id="Group_1328" data-name="Group 1328" transform="translate(165.085 246.242)">
        <path id="Path_1248" data-name="Path 1248" d="M156.119,393.241s7.491-35.223,67-59.6C223.12,333.638,205.369,377.363,156.119,393.241Z" transform="translate(-156.119 -333.638)" fill="#3f79da" fill-rule="evenodd"/>
      </g>
      <g id="Group_1329" data-name="Group 1329" transform="translate(161.177 218.021)">
        <path id="Path_1249" data-name="Path 1249" d="M154.905,393.457s2.369-35.931,57.774-68.585C212.679,324.872,201.373,370.69,154.905,393.457Z" transform="translate(-154.905 -324.872)" fill="#3f79da" fill-rule="evenodd"/>
      </g>
      <g id="Group_1330" data-name="Group 1330" transform="translate(153.566 191.178)">
        <path id="Path_1250" data-name="Path 1250" d="M152.545,390.772s-1.4-35.979,50.3-74.238C202.84,316.534,196.382,363.279,152.545,390.772Z" transform="translate(-152.541 -316.534)" fill="#3f79da" fill-rule="evenodd"/>
      </g>
      <g id="Group_1331" data-name="Group 1331" transform="translate(145.942 149.526)">
        <path id="Path_1251" data-name="Path 1251" d="M150.173,390.673s-.679-41.514,61.158-87.077C211.331,303.593,202.481,357.749,150.173,390.673Z" transform="translate(-150.173 -303.596)" fill="#3f79da" fill-rule="evenodd"/>
      </g>
      <g id="Group_1332" data-name="Group 1332" transform="translate(135.586 117.377)">
        <path id="Path_1252" data-name="Path 1252" d="M146.956,383.993s-.753-43.117,63.379-90.383C210.336,293.61,201.209,349.846,146.956,383.993Z" transform="translate(-146.956 -293.61)" fill="#3f79da" fill-rule="evenodd"/>
      </g>
      <g id="Group_1333" data-name="Group 1333" transform="translate(128.329 84.305)">
        <path id="Path_1253" data-name="Path 1253" d="M145.05,382.651s-7.6-42.447,48.187-99.314C193.237,283.337,193.183,340.31,145.05,382.651Z" transform="translate(-144.702 -283.337)" fill="#3f79da" fill-rule="evenodd"/>
      </g>
      <g id="Group_1334" data-name="Group 1334" transform="translate(113.891 58.048)">
        <path id="Path_1254" data-name="Path 1254" d="M141.707,369.7s-11.847-37.045,31.263-94.52C172.971,275.181,179.7,326.124,141.707,369.7Z" transform="translate(-140.217 -275.181)" fill="#3f79da" fill-rule="evenodd"/>
      </g>
      <g id="Group_1335" data-name="Group 1335" transform="translate(97.599 35.448)">
        <path id="Path_1255" data-name="Path 1255" d="M136.053,355.795s-9.252-33.433,31.691-87.634C167.744,268.161,171.865,314.5,136.053,355.795Z" transform="translate(-135.157 -268.161)" fill="#3f79da" fill-rule="evenodd"/>
      </g>
      <g id="Group_1336" data-name="Group 1336" transform="translate(82.769 17.536)">
        <path id="Path_1256" data-name="Path 1256" d="M130.975,339.069s-6.381-28.285,30.3-76.473C161.275,262.6,162.8,302.16,130.975,339.069Z" transform="translate(-130.55 -262.597)" fill="#3f79da" fill-rule="evenodd"/>
      </g>
      <g id="Group_1337" data-name="Group 1337" transform="translate(70.121 4.996)">
        <path id="Path_1257" data-name="Path 1257" d="M128.227,332.567s-9-23.443,15.6-73.865C143.831,258.7,150.209,293.126,128.227,332.567Z" transform="translate(-126.621 -258.702)" fill="#3f79da" fill-rule="evenodd"/>
      </g>
      <g id="Group_1338" data-name="Group 1338" transform="translate(55.552)">
        <path id="Path_1258" data-name="Path 1258" d="M124.785,314.4s-9.9-19.255,8.277-57.25C133.062,257.15,141.461,284.891,124.785,314.4Z" transform="translate(-122.096 -257.15)" fill="#3f79da" fill-rule="evenodd"/>
      </g>
      <g id="Group_1339" data-name="Group 1339" transform="translate(16.348 0.792)">
        <path id="Path_1259" data-name="Path 1259" d="M141.9,300.944s-27.326-4.8-31.984-43.548C109.918,257.4,140.856,270.151,141.9,300.944Z" transform="translate(-109.918 -257.396)" fill="#3f79da" fill-rule="evenodd"/>
      </g>
      <g id="Group_1340" data-name="Group 1340" transform="translate(1.336 39.22)">
        <path id="Path_1260" data-name="Path 1260" d="M105.255,270.641s20.211-7.746,56.01,14.448C161.265,285.09,132.78,290.424,105.255,270.641Z" transform="translate(-105.255 -269.332)" fill="#3f79da" fill-rule="evenodd"/>
      </g>
      <g id="Group_1341" data-name="Group 1341" transform="translate(91.211 317.191)">
        <path id="Path_1261" data-name="Path 1261" d="M211.067,366.528s-24.876-20.929-77.9-4.655C133.172,361.872,169.621,383.069,211.067,366.528Z" transform="translate(-133.172 -355.676)" fill="#3f79da" fill-rule="evenodd"/>
      </g>
      <g id="Group_1342" data-name="Group 1342" transform="translate(72.287 268.389)">
        <path id="Path_1262" data-name="Path 1262" d="M215.5,358.979s-24.686-26.215-88.2-16.167C127.294,342.811,165.157,370.974,215.5,358.979Z" transform="translate(-127.294 -340.517)" fill="#3f79da" fill-rule="evenodd"/>
      </g>
      <g id="Group_1343" data-name="Group 1343" transform="translate(68.962 237.726)">
        <path id="Path_1263" data-name="Path 1263" d="M212.288,356.561s-21.811-28.655-86.027-25.294C126.261,331.267,160.975,363.229,212.288,356.561Z" transform="translate(-126.261 -330.993)" fill="#3f79da" fill-rule="evenodd"/>
      </g>
      <g id="Group_1344" data-name="Group 1344" transform="translate(44.308 206.353)">
        <path id="Path_1264" data-name="Path 1264" d="M221.181,349.9S195.3,317.443,118.6,321.619C118.6,321.619,159.875,357.775,221.181,349.9Z" transform="translate(-118.603 -321.248)" fill="#3f79da" fill-rule="evenodd"/>
      </g>
      <g id="Group_1345" data-name="Group 1345" transform="translate(30.056 175.468)">
        <path id="Path_1265" data-name="Path 1265" d="M220.572,341.458s-26.849-33.745-106.4-29.422C114.176,312.037,156.99,349.623,220.572,341.458Z" transform="translate(-114.176 -311.654)" fill="#3f79da" fill-rule="evenodd"/>
      </g>
      <g id="Group_1346" data-name="Group 1346" transform="translate(27.091 135.911)">
        <path id="Path_1266" data-name="Path 1266" d="M213.612,345.342s-21.138-37.592-100.357-45.975C113.255,299.367,149.543,343.285,213.612,345.342Z" transform="translate(-113.255 -299.367)" fill="#3f79da" fill-rule="evenodd"/>
      </g>
      <g id="Group_1347" data-name="Group 1347" transform="translate(23.987 106.892)">
        <path id="Path_1267" data-name="Path 1267" d="M202.017,333.5s-18.431-34.251-89.726-43.146C112.291,290.353,144.278,330.569,202.017,333.5Z" transform="translate(-112.291 -290.353)" fill="#3f79da" fill-rule="evenodd"/>
      </g>
      <g id="Group_1348" data-name="Group 1348" transform="translate(17.017 72.052)">
        <path id="Path_1268" data-name="Path 1268" d="M190.326,326.991s-14.136-31.685-80.2-47.46C110.126,279.531,136.422,317.912,190.326,326.991Z" transform="translate(-110.126 -279.531)" fill="#3f79da" fill-rule="evenodd"/>
      </g>
      <g id="Group_1349" data-name="Group 1349" transform="translate(0 52.974)">
        <path id="Path_1269" data-name="Path 1269" d="M176.161,298.368S160.728,278.56,104.84,273.6C104.84,273.6,131.033,296.839,176.161,298.368Z" transform="translate(-104.84 -273.605)" fill="#3f79da" fill-rule="evenodd"/>
      </g>
      <g id="Group_1350" data-name="Group 1350" transform="translate(76.192 294.544)">
        <path id="Path_1270" data-name="Path 1270" d="M218.121,359.681s-28.189-22.413-89.614-3.367C128.507,356.314,170.017,378.762,218.121,359.681Z" transform="translate(-128.507 -348.642)" fill="#3f79da" fill-rule="evenodd"/>
      </g>
    </g>
    <g id="Group_1352" data-name="Group 1352" transform="translate(221.631 1164.932)">
      <path id="Path_1271" data-name="Path 1271" d="M541.034,477.114c234.04,0,424.925-13.119,424.925-29.2s-190.885-29.2-424.925-29.2-424.925,13.116-424.925,29.2S306.994,477.114,541.034,477.114Z" transform="translate(-116.109 -418.712)" fill="#bedaf7" fill-rule="evenodd"/>
    </g>
    <g id="Group_1422" data-name="Group 1422" transform="translate(68.562 82.478)">
      <g id="Group_1353" data-name="Group 1353" transform="translate(310.923 85.219)">
        <path id="Path_1272" data-name="Path 1272" d="M703.5,186.558v871.226A77.6,77.6,0,0,1,625.9,1135.4H242.751a77.6,77.6,0,0,1-77.609-77.612V186.558a77.623,77.623,0,0,1,77.609-77.609H625.9A77.621,77.621,0,0,1,703.5,186.558Z" transform="translate(-165.142 -108.949)" fill="#6fa0fd" fill-rule="evenodd"/>
      </g>
      <g id="Group_1354" data-name="Group 1354" transform="translate(331.974 106.27)">
        <path id="Rectangle_86" data-name="Rectangle 86" d="M17.569,0H478.692A17.568,17.568,0,0,1,496.26,17.568v949.21a17.569,17.569,0,0,1-17.569,17.569H17.568A17.568,17.568,0,0,1,0,966.778V17.569A17.569,17.569,0,0,1,17.569,0Z" fill="#edf7fb"/>
      </g>
      <g id="Group_1355" data-name="Group 1355" transform="translate(425.333 897.624)">
        <ellipse id="Ellipse_92" data-name="Ellipse 92" cx="150.725" cy="26.527" rx="150.725" ry="26.527" fill="#aabeeb"/>
      </g>
      <g id="Group_1356" data-name="Group 1356" transform="translate(849.285 243.985)">
        <path id="Path_1273" data-name="Path 1273" d="M336.879,363.827h-4.51V158.265h4.51a10.172,10.172,0,0,1,10.17,10.176l0,185.209A10.175,10.175,0,0,1,336.879,363.827Z" transform="translate(-332.369 -158.265)" fill="#407adb" fill-rule="evenodd"/>
      </g>
      <g id="Group_1357" data-name="Group 1357" transform="translate(297.277 240.489)">
        <path id="Path_1274" data-name="Path 1274" d="M174.55,257.162h-4.188A9.455,9.455,0,0,1,160.9,247.7V166.637a9.458,9.458,0,0,1,9.455-9.458h4.192Z" transform="translate(-160.903 -157.179)" fill="#407adb" fill-rule="evenodd"/>
      </g>
      <g id="Group_1358" data-name="Group 1358" transform="translate(299.025 388.018)">
        <path id="Path_1275" data-name="Path 1275" d="M173.345,264.533h-3.654a8.246,8.246,0,0,1-8.245-8.245V211.253a8.247,8.247,0,0,1,8.245-8.248h3.654Z" transform="translate(-161.446 -203.005)" fill="#407adb" fill-rule="evenodd"/>
      </g>
      <g id="Group_1359" data-name="Group 1359" transform="translate(453.042 85.219)">
        <path id="Path_1276" data-name="Path 1276" d="M209.287,108.949H463.764v36.54a36.643,36.643,0,0,1-36.536,36.536h-181.4a36.644,36.644,0,0,1-36.54-36.536Z" transform="translate(-209.287 -108.949)" fill="#6fa0fd" fill-rule="evenodd"/>
      </g>
      <g id="Group_1362" data-name="Group 1362" transform="translate(508.292 112.919)">
        <g id="Group_1360" data-name="Group 1360">
          <path id="Path_1277" data-name="Path 1277" d="M244.123,126.393a8.837,8.837,0,1,1-8.837-8.84A8.837,8.837,0,0,1,244.123,126.393Z" transform="translate(-226.449 -117.553)" fill="#424b96" fill-rule="evenodd"/>
        </g>
        <g id="Group_1361" data-name="Group 1361" transform="translate(25.489 2.357)">
          <rect id="Rectangle_87" data-name="Rectangle 87" width="118.487" height="12.963" rx="1.395" fill="#424b96"/>
        </g>
      </g>
      <g id="Group_1385" data-name="Group 1385" transform="translate(278.131 366.062)">
        <g id="Group_1371" data-name="Group 1371" transform="translate(0 26.23)">
          <g id="Group_1363" data-name="Group 1363" transform="translate(0 31.713)">
            <path id="Path_1278" data-name="Path 1278" d="M163.027,215.316c8.921-4.433,21.624,4.533,28.533,20.053,5.08,1.1,8.547,8.654,7.9,17.722-.538,7.514-3.744,13.875-7.8,16.345a11.649,11.649,0,0,1-3.786,3.049c-9,4.475-21.859-4.7-28.72-20.485S154.025,219.791,163.027,215.316Z" transform="translate(-154.956 -214.183)" fill="#fdceae" fill-rule="evenodd"/>
          </g>
          <g id="Group_1364" data-name="Group 1364" transform="translate(516.631 145.164)">
            <path id="Path_1279" data-name="Path 1279" d="M351.944,250.555c-8.921-4.43-21.628,4.533-28.533,20.053-5.08,1.1-8.547,8.654-7.9,17.726.538,7.514,3.744,13.872,7.8,16.341a11.619,11.619,0,0,0,3.786,3.052c9,4.472,21.859-4.7,28.72-20.488S360.945,255.03,351.944,250.555Z" transform="translate(-315.433 -249.423)" fill="#fdceae" fill-rule="evenodd"/>
          </g>
          <g id="Group_1365" data-name="Group 1365" transform="translate(16.605 78.773)">
            <path id="Path_1280" data-name="Path 1280" d="M418.76,343.355l-64.548,9.165c-81.945,11.631-139.71-39.83-166.8-123.719a32.408,32.408,0,0,1-27.294,8.831c13.019,106.406,74.222,167.6,181.436,190.514,2.672,83.349,7.179,173.462,5.154,255.375a470.385,470.385,0,0,0,181.1,4.468c-6.947-83.217-5.283-156.1,2.408-236.735,27.635,27.732,78.443,61.007,96.336,57.726,31.62-5.795,48.551-85.206,58.505-156.885-11.773-1.049-19.918-7.231-24.834-17.993-12.292,40.036-26.585,73.385-42.183,110.939-57.247-37.518-78.626-71.521-143.7-104.771Z" transform="translate(-160.114 -228.801)" fill="#407adb" fill-rule="evenodd"/>
          </g>
          <g id="Group_1366" data-name="Group 1366" transform="translate(274.359 161.446)">
            <path id="Path_1281" data-name="Path 1281" d="M240.178,254.481h56.471v28.8c15.694,15.356,7.469,27.149-14.938,25.98-19.078-1-41.533-7.627-41.533-30.236Z" transform="translate(-240.178 -254.481)" fill="#fdceae" fill-rule="evenodd"/>
          </g>
          <g id="Group_1367" data-name="Group 1367" transform="translate(274.359 161.446)">
            <path id="Path_1282" data-name="Path 1282" d="M240.178,254.481h56.471v14.4l-47.743,29.927c-5.305-4.572-8.728-10.962-8.728-19.786Z" transform="translate(-240.178 -254.481)" fill="#f3b898" fill-rule="evenodd"/>
          </g>
          <g id="Group_1368" data-name="Group 1368" transform="translate(215.457)">
            <path id="Path_1283" data-name="Path 1283" d="M359.722,255.4,280.784,365.778l.715,12.182c-21.869-30.529-44.556-36.688-54.4-69.319-12.968-42.965-2.035-79.833,36.086-93.577,11.271-4.063,24.631,3.957,35.329-1.787,27.525-14.77,39.489-9.037,41.909,1.291,4.021,17.153,32.532-7.363,40.95,8.9C389.685,239.525,379.669,252.528,359.722,255.4Z" transform="translate(-221.882 -204.332)" fill="#424b96" fill-rule="evenodd"/>
          </g>
          <g id="Group_1369" data-name="Group 1369" transform="translate(242.379 51.064)">
            <path id="Path_1284" data-name="Path 1284" d="M287.477,227.351a98.245,98.245,0,0,0,53.686-7.157c27.764,46.671,28.758,112.255-20.536,124.837-27.271,6.963-63.946-3.483-68.344-36.556-19.409-1.954-27.973-33.446-17.584-41.629,10.914-8.6,18.411,7.508,20.143,16.815l4.765-1.4-2.55-25.082A60.762,60.762,0,0,0,287.477,227.351Z" transform="translate(-230.244 -220.194)" fill="#fdceae" fill-rule="evenodd"/>
          </g>
          <g id="Group_1370" data-name="Group 1370" transform="translate(242.379 51.064)">
            <path id="Path_1285" data-name="Path 1285" d="M287.477,227.351a98.245,98.245,0,0,0,53.686-7.157c-13.74,13.853-30.523,22.97-51.864,25.008-23.028,38.494-11.709,84.2,39.511,97.063a55.721,55.721,0,0,1-8.184,2.766c-27.271,6.963-63.946-3.483-68.344-36.556-19.409-1.954-27.973-33.446-17.584-41.629,10.914-8.6,18.411,7.508,20.143,16.815l4.765-1.4-2.55-25.082A60.762,60.762,0,0,0,287.477,227.351Z" transform="translate(-230.244 -220.194)" fill="#f3b898" fill-rule="evenodd"/>
          </g>
        </g>
        <g id="Group_1384" data-name="Group 1384" transform="translate(471.725)">
          <g id="Group_1372" data-name="Group 1372" transform="translate(52.677 174)">
            <path id="Path_1286" data-name="Path 1286" d="M317.847,255.043l21.01-4.81,7.842,34.26a5.062,5.062,0,0,1-3.792,6.049L331.735,293.1a5.063,5.063,0,0,1-6.046-3.8Z" transform="translate(-317.847 -250.233)" fill="#3b70cc" fill-rule="evenodd"/>
          </g>
          <g id="Group_1373" data-name="Group 1373" transform="translate(0 57.328)">
            <path id="Path_1287" data-name="Path 1287" d="M333.349,264.4c47.93-7.5,88.4-20.452,111.258-50.405L491.7,320.62l-31.588,38.326c-44.855-28.041-77.438-26.267-118.742-22.333-19.7,1.877-37.477-11.445-39.659-31.115h0a36.564,36.564,0,0,1,3.313-19.648l.007-.016c.106-.222.212-.444.322-.663l.039-.084a37.821,37.821,0,0,1,2.292-3.982l.006-.013c.129-.193.258-.39.39-.579l.074-.109c.126-.18.251-.361.38-.541l.077-.1c.135-.19.27-.377.412-.563l.022-.029c.145-.2.293-.386.441-.579l.074-.1q.9-1.149,1.9-2.234l.068-.077.4-.425.19-.2.354-.364.238-.238.345-.341.229-.219.367-.348.235-.216c.129-.116.254-.232.38-.348l.18-.154c.142-.126.283-.251.428-.373.2-.171.4-.338.6-.5l.383-.309.267-.212.367-.28.293-.225.38-.28.28-.2.393-.277.315-.219.338-.229.418-.274.274-.177c.148-.1.3-.19.451-.28l.28-.174c.158-.1.316-.187.473-.28l.235-.138.006,0,.2-.113c.177-.1.357-.2.538-.3l.238-.129.492-.258.312-.161.457-.229.312-.148.444-.209.338-.155c.151-.068.306-.135.46-.2l.315-.138c.174-.071.348-.145.525-.216l.251-.1q.29-.116.579-.222l.242-.093.013,0c.248-.093.5-.18.75-.267l.013-.006.319-.106.5-.164.328-.1c.167-.051.335-.1.5-.151l.354-.1.47-.129.354-.093.538-.132.286-.068c.2-.045.4-.09.6-.132l.267-.058c.193-.039.389-.077.583-.113l.3-.058C332.779,264.491,333.062,264.442,333.349,264.4Z" transform="translate(-301.484 -213.992)" fill="#aabeeb" fill-rule="evenodd"/>
          </g>
          <g id="Group_1374" data-name="Group 1374" transform="translate(19.18 57.328)">
            <path id="Path_1288" data-name="Path 1288" d="M320.126,264.4c47.93-7.5,88.4-20.452,111.258-50.405-12.417,37.148-16.364,74.3-10.547,111.444-30.362-6.387-60.723-6.323-91.085-2.579l-22.31-53.992.151-.087c.177-.1.357-.2.538-.3l.238-.129.492-.258.312-.161.457-.229.312-.148.444-.209.338-.155c.151-.068.306-.135.46-.2l.315-.138c.174-.071.348-.145.525-.216l.251-.1q.29-.116.58-.222l.241-.093.013,0c.248-.093.5-.18.75-.267l.013-.006.319-.106.5-.164.328-.1c.167-.051.335-.1.5-.151l.354-.1.47-.129.354-.093.538-.132.287-.068c.2-.045.4-.09.6-.132l.267-.058c.193-.039.389-.077.583-.113l.3-.058C319.556,264.491,319.84,264.442,320.126,264.4Z" transform="translate(-307.442 -213.992)" fill="#b7cdfe" fill-rule="evenodd"/>
          </g>
          <g id="Group_1375" data-name="Group 1375" transform="translate(0 106.461)">
            <path id="Path_1289" data-name="Path 1289" d="M333.348,230.526q3.911-.608,7.752-1.272a168.439,168.439,0,0,0-.544,43.944,182.144,182.144,0,0,0,5.582,29.1q-2.371.212-4.774.447c-19.7,1.877-37.477-11.445-39.659-31.115h0C299.519,251.957,313.8,233.584,333.348,230.526Z" transform="translate(-301.484 -229.254)" fill="#407adb" fill-rule="evenodd"/>
          </g>
          <g id="Group_1376" data-name="Group 1376" transform="translate(137.886)">
            <path id="Path_1290" data-name="Path 1290" d="M394.145,196.379c34.322-3.808,68.344,48.982,75.993,117.915S456.168,442.189,421.85,446s-68.347-48.982-76-117.912S359.823,200.187,394.145,196.379Z" transform="translate(-344.315 -196.185)" fill="#b7cdfe" fill-rule="evenodd"/>
          </g>
          <g id="Group_1377" data-name="Group 1377" transform="translate(145.59 7.742)">
            <path id="Path_1291" data-name="Path 1291" d="M389.69,198.748c30.062-3.339,60.253,46.388,67.429,111.061s-11.374,119.808-41.436,123.143-60.253-46.384-67.432-111.061S359.625,202.087,389.69,198.748Z" transform="translate(-346.708 -198.59)" fill="#aabeeb" fill-rule="evenodd"/>
          </g>
          <g id="Group_1378" data-name="Group 1378" transform="translate(140.147 10.786)">
            <ellipse id="Ellipse_93" data-name="Ellipse 93" cx="49.656" cy="109.408" rx="49.656" ry="109.408" transform="translate(0 10.955) rotate(-6.333)" fill="#6fa0fd"/>
          </g>
          <g id="Group_1379" data-name="Group 1379" transform="translate(150.75 73.669)">
            <path id="Path_1292" data-name="Path 1292" d="M377.869,358.936C364.3,340.273,353.6,310.359,349.777,275.88a216.186,216.186,0,0,1,.831-56.809c15.566-.37,31.54,31.006,36,71.212C389.871,319.673,386.1,345.807,377.869,358.936Z" transform="translate(-348.31 -219.068)" fill="#5e94ea" fill-rule="evenodd"/>
          </g>
          <g id="Group_1380" data-name="Group 1380" transform="translate(150.81 109.407)">
            <path id="Path_1293" data-name="Path 1293" d="M383.455,238.919l-35.126-8.75c.151,6.854.609,13.9,1.407,21.074a236.427,236.427,0,0,0,4.761,27.822l32.242-11.818Z" transform="translate(-348.329 -230.169)" fill="#505bb5" fill-rule="evenodd"/>
          </g>
          <g id="Group_1381" data-name="Group 1381" transform="translate(153.153 132.322)">
            <path id="Path_1294" data-name="Path 1294" d="M349.057,242.844l34.424-5.557,1.642,14.162-32.242,11.818C351.346,256.719,350.058,249.894,349.057,242.844Z" transform="translate(-349.057 -237.287)" fill="#424b96" fill-rule="evenodd"/>
          </g>
          <g id="Group_1382" data-name="Group 1382" transform="translate(180.135 118.134)">
            <path id="Path_1295" data-name="Path 1295" d="M363.239,232.9c3.979-.441,7.907,5.547,8.776,13.373s-1.651,14.532-5.631,14.973-7.907-5.547-8.776-13.373S359.263,233.344,363.239,232.9Z" transform="translate(-357.438 -232.88)" fill="#aabeeb" fill-rule="evenodd"/>
          </g>
          <g id="Group_1383" data-name="Group 1383" transform="translate(37.906 105.808)">
            <path id="Path_1296" data-name="Path 1296" d="M318.649,229.051a168.114,168.114,0,0,0-.583,44.2,181.789,181.789,0,0,0,5.6,29.17q-1.821.159-3.664.328a182.5,182.5,0,0,1-5.582-29.1,168.471,168.471,0,0,1,.544-43.947Q316.818,229.383,318.649,229.051Z" transform="translate(-313.259 -229.051)" fill="#424b96" fill-rule="evenodd"/>
          </g>
        </g>
      </g>
      <g id="Group_1389" data-name="Group 1389" transform="translate(157.776 290.536)">
        <g id="Group_1386" data-name="Group 1386" transform="translate(21.492 28.898)">
          <path id="Path_1297" data-name="Path 1297" d="M237.745,181.7l31.82,43.983a70.042,70.042,0,1,1-113.5,82.109l-31.82-43.983,26.956-19.5,31.82,43.98a36.88,36.88,0,0,0,51.345,8.242h0a36.884,36.884,0,0,0,8.242-51.349L210.793,201.2Z" transform="translate(-124.247 -181.701)" fill="#b7cdfe" fill-rule="evenodd"/>
        </g>
        <g id="Group_1387" data-name="Group 1387" transform="translate(0 62.022)">
          <rect id="Rectangle_88" data-name="Rectangle 88" width="33.27" height="36.772" transform="matrix(0.81, -0.586, 0.586, 0.81, 0.587, 20.089)" fill="#424b96"/>
          <path id="Path_1298" data-name="Path 1298" d="M139.617,242.456l-.245-.338-21.8-30.136.341-.245,27.3-19.747.245.341,21.8,30.136-.341.245Zm-20.871-30.284,21.061,29.113,26.273-19.007-21.061-29.113Z" transform="translate(-117.571 -191.99)" fill="#3f79dc"/>
        </g>
        <g id="Group_1388" data-name="Group 1388" transform="translate(87.13 0)">
          <rect id="Rectangle_89" data-name="Rectangle 89" width="33.27" height="36.772" transform="translate(0 19.501) rotate(-35.883)" fill="#424b96"/>
        </g>
      </g>
      <g id="Group_1393" data-name="Group 1393" transform="translate(1031.16 382.525)">
        <g id="Group_1390" data-name="Group 1390" transform="translate(2.59)">
          <path id="Path_1299" data-name="Path 1299" d="M389.668,244.084l3.107,7.769L468.4,224.09,458.039,201.3Z" transform="translate(-389.668 -201.298)" fill="#b7cdfe" fill-rule="evenodd"/>
        </g>
        <g id="Group_1391" data-name="Group 1391" transform="translate(9.841 93.753)">
          <path id="Path_1300" data-name="Path 1300" d="M391.92,233.009l1.036,14.5,113.953,16.575-1.554-33.667Z" transform="translate(-391.92 -230.42)" fill="#b7cdfe" fill-rule="evenodd"/>
        </g>
        <g id="Group_1392" data-name="Group 1392" transform="translate(0 152.8)">
          <path id="Path_1301" data-name="Path 1301" d="M393.525,248.762l-4.661,10.877,59.048,51.279,10.877-18.129Z" transform="translate(-388.863 -248.762)" fill="#b7cdfe" fill-rule="evenodd"/>
        </g>
      </g>
      <g id="Group_1398" data-name="Group 1398" transform="translate(47.496 546.584)">
        <g id="Group_1394" data-name="Group 1394">
          <rect id="Rectangle_90" data-name="Rectangle 90" width="199.441" height="185.773" rx="14.309" fill="#b7cdfe"/>
        </g>
        <g id="Group_1397" data-name="Group 1397" transform="translate(33.411 40.197)">
          <g id="Group_1395" data-name="Group 1395">
            <path id="Rectangle_91" data-name="Rectangle 91" d="M4.6,0h123.41a4.605,4.605,0,0,1,4.605,4.605v96.17a4.6,4.6,0,0,1-4.6,4.6H4.6a4.6,4.6,0,0,1-4.6-4.6V4.6A4.6,4.6,0,0,1,4.6,0Z" fill="#fff"/>
          </g>
          <g id="Group_1396" data-name="Group 1396" transform="translate(10.871 10.862)">
            <path id="Path_1302" data-name="Path 1302" d="M152.509,316.8l-55.438-48.68,55.438,35.211,55.438-35.211Z" transform="translate(-97.071 -268.119)" fill="#b7cdfe" fill-rule="evenodd"/>
          </g>
        </g>
      </g>
      <g id="Group_1401" data-name="Group 1401" transform="translate(786.362 71.796)">
        <g id="Group_1399" data-name="Group 1399" transform="translate(0)">
          <circle id="Ellipse_94" data-name="Ellipse 94" cx="82.662" cy="82.662" r="82.662" transform="translate(0 48.226) rotate(-16.96)" fill="#b7cdfe"/>
        </g>
        <g id="Group_1400" data-name="Group 1400" transform="translate(55.926 58.744)">
          <path id="Path_1303" data-name="Path 1303" d="M393.119,139.543l-36.8,16.737c-.55-.3-1.169-.863-1.735-1.233a15.764,15.764,0,1,0-4.14,28.3,16.215,16.215,0,0,0,4-1.835,14.523,14.523,0,0,0,1.677-1.236,15.431,15.431,0,0,1,1.648-1.455,35.451,35.451,0,0,1,3.393,1.832c9.99,5.589,20.5,11.158,30.484,16.657,2.292,1.262,1.381.538,2.1,3.084,3.757,13.306,21.347,15.514,28.459,4.266a15.753,15.753,0,0,0-24.142-19.912,23.342,23.342,0,0,0-2.427,2.878c-.7-.129-23.733-12.874-25.4-13.8l-8.5-4.613-.187-3.94c5.9-2.691,11.718-5.37,17.726-8.061,1.088-.486,17.088-7.878,17.819-7.984a15.971,15.971,0,0,0,8.872,5.042,15.782,15.782,0,0,0,17.71-9.858,16.142,16.142,0,0,0-.258-11.873,15.791,15.791,0,0,0-30.059,3.66C393.139,137.389,393.264,138.41,393.119,139.543Z" transform="translate(-330.195 -123.027)" fill="#fff" fill-rule="evenodd"/>
        </g>
      </g>
      <g id="Group_1402" data-name="Group 1402" transform="translate(84.008)">
        <path id="Path_1304" data-name="Path 1304" d="M126.686,239.273H340.647c25.71,0,46.555-20.343,46.555-45.438S366.357,148.4,340.647,148.4a47.172,47.172,0,0,0-25.51,7.427,45.069,45.069,0,0,0-74.872-43.944,36.875,36.875,0,1,0-69.812,22.442q-1.111-.072-2.241-.074a32.981,32.981,0,0,0-31.54,42.553,32.033,32.033,0,1,0-9.986,62.471Z" transform="translate(-94.657 -82.478)" fill="#b7cdfe" fill-rule="evenodd"/>
      </g>
      <g id="Group_1409" data-name="Group 1409" transform="translate(379.166 254.915)">
        <g id="Group_1403" data-name="Group 1403" transform="translate(33.997)">
          <rect id="Rectangle_92" data-name="Rectangle 92" width="367.879" height="15.853" rx="2.462" fill="#cfd8fc"/>
        </g>
        <g id="Group_1404" data-name="Group 1404" transform="translate(33.997 44.383)">
          <path id="Rectangle_93" data-name="Rectangle 93" d="M2.461,0H365.418a2.461,2.461,0,0,1,2.461,2.461V13.39a2.462,2.462,0,0,1-2.462,2.462H2.462A2.462,2.462,0,0,1,0,13.39V2.461A2.461,2.461,0,0,1,2.461,0Z" fill="#cfd8fc"/>
        </g>
        <g id="Group_1405" data-name="Group 1405" transform="translate(33.997 88.765)">
          <rect id="Rectangle_94" data-name="Rectangle 94" width="367.879" height="15.853" rx="2.462" fill="#cfd8fc"/>
        </g>
        <g id="Group_1406" data-name="Group 1406">
          <rect id="Rectangle_95" data-name="Rectangle 95" width="20.104" height="15.853" rx="2.462" fill="#407adb"/>
        </g>
        <g id="Group_1407" data-name="Group 1407" transform="translate(0 44.383)">
          <path id="Rectangle_96" data-name="Rectangle 96" d="M2.461,0H17.642A2.461,2.461,0,0,1,20.1,2.461V13.39a2.462,2.462,0,0,1-2.462,2.462H2.462A2.462,2.462,0,0,1,0,13.39V2.461A2.461,2.461,0,0,1,2.461,0Z" fill="#407adb"/>
        </g>
        <g id="Group_1408" data-name="Group 1408" transform="translate(0 88.765)">
          <rect id="Rectangle_97" data-name="Rectangle 97" width="20.104" height="15.853" rx="2.462" fill="#407adb"/>
        </g>
      </g>
      <g id="Group_1414" data-name="Group 1414" transform="translate(379.166 984.633)">
        <g id="Group_1410" data-name="Group 1410" transform="translate(33.997)">
          <rect id="Rectangle_98" data-name="Rectangle 98" width="367.879" height="15.852" rx="2.461" fill="#cfd8fc"/>
        </g>
        <g id="Group_1411" data-name="Group 1411" transform="translate(33.997 44.382)">
          <rect id="Rectangle_99" data-name="Rectangle 99" width="367.879" height="15.853" rx="2.462" fill="#cfd8fc"/>
        </g>
        <g id="Group_1412" data-name="Group 1412">
          <rect id="Rectangle_100" data-name="Rectangle 100" width="20.104" height="15.852" rx="2.461" fill="#407adb"/>
        </g>
        <g id="Group_1413" data-name="Group 1413" transform="translate(0 44.382)">
          <rect id="Rectangle_101" data-name="Rectangle 101" width="20.104" height="15.853" rx="2.462" fill="#407adb"/>
        </g>
      </g>
      <g id="Group_1417" data-name="Group 1417" transform="translate(755.608 831.666)">
        <g id="Group_1415" data-name="Group 1415">
          <rect id="Rectangle_102" data-name="Rectangle 102" width="313.166" height="215.116" rx="9.872" fill="#b7cdfe"/>
        </g>
        <g id="Group_1416" data-name="Group 1416" transform="translate(114.401 68.012)">
          <path id="Path_1305" data-name="Path 1305" d="M338.806,361.938l84.363,39.546-84.363,39.547Z" transform="translate(-338.806 -361.938)" fill="#fff" fill-rule="evenodd"/>
        </g>
      </g>
      <g id="Group_1420" data-name="Group 1420" transform="translate(139.812 857.312)">
        <g id="Group_1418" data-name="Group 1418">
          <path id="Path_1306" data-name="Path 1306" d="M128.8,373.712h45.373l11.612-19.284c1.6-2.656,2.9-5.65,8.76-5.65h45.209c5.859,0,7.163,2.994,8.76,5.65l11.612,19.284H305.5a16.853,16.853,0,0,1,16.8,16.8V505.425a16.854,16.854,0,0,1-16.8,16.805H128.8a16.854,16.854,0,0,1-16.8-16.805V390.514A16.854,16.854,0,0,1,128.8,373.712Z" transform="translate(-111.991 -348.778)" fill="#b7cdfe" fill-rule="evenodd"/>
        </g>
        <g id="Group_1419" data-name="Group 1419" transform="translate(63.186 63.865)">
          <path id="Path_1307" data-name="Path 1307" d="M173.589,452.557a41.971,41.971,0,1,0-41.971-41.971A42.051,42.051,0,0,0,173.589,452.557Z" transform="translate(-131.618 -368.616)" fill="#fff" fill-rule="evenodd"/>
        </g>
      </g>
      <g id="Group_1421" data-name="Group 1421" transform="translate(0 324.293)">
        <path id="Path_1308" data-name="Path 1308" d="M82.884,194.847a44.217,44.217,0,0,1,65.565,58.708l20.034,21.834a6.142,6.142,0,0,1-.373,8.657l-3.67,3.367a6.138,6.138,0,0,1-8.654-.373l-20.034-21.834a44.217,44.217,0,0,1-52.868-70.359Zm11.345,12.362a27.435,27.435,0,1,0,38.764,1.664A27.436,27.436,0,0,0,94.229,207.209Z" transform="translate(-68.562 -183.21)" fill="#b7cdfe" fill-rule="evenodd"/>
      </g>
    </g>
  </g>
</svg>
