<svg xmlns="http://www.w3.org/2000/svg" xmlns:xlink="http://www.w3.org/1999/xlink" width="65.256" height="75.15" viewBox="0 0 65.256 75.15">
  <defs>
    <linearGradient id="linear-gradient" x1="1.119" y1="0.577" x2="0.5" y2="0.577" gradientUnits="objectBoundingBox">
      <stop offset="0" stop-color="#6156f9"/>
      <stop offset="1" stop-color="#1a129f"/>
    </linearGradient>
  </defs>
  <g id="Group_1542" data-name="Group 1542" transform="translate(-354.007 -140.399)">
    <path id="Path_1531" data-name="Path 1531" d="M319.56,284l2.531,1-1.232,4.553-3.1-.867L319.135,284Z" transform="translate(64.043 -143.101)" stroke="rgba(0,0,0,0)" stroke-width="1" fill="url(#linear-gradient)"/>
    <path id="Path_1532" data-name="Path 1532" d="M325.323,342.021l-22.142,12.065c-4.194-4.258-8.377-8.473-12.494-12.752a1.767,1.767,0,0,1-.118-1.621c3.808-7.1,7.677-14.174,11.481-21.156Z" transform="translate(79.745 -162.96)" stroke="rgba(0,0,0,0)" stroke-width="1" fill="url(#linear-gradient)"/>
    <path id="Path_1533" data-name="Path 1533" d="M268.973,377.235l12.522,12.439c-3.5,3.6-6.929,7.333-10.645,10.752-.7.641-3.007.564-3.784-.1a114.667,114.667,0,0,1-8.611-8.473,2.881,2.881,0,0,1,.075-4.226C261.976,384.091,265.522,380.654,268.973,377.235Z" transform="translate(98.627 -196.678)" stroke="rgba(0,0,0,0)" stroke-width="1" fill="url(#linear-gradient)"/>
    <path id="Path_1534" data-name="Path 1534" d="M316.623,427.727l3.047,3.3-4.713,4.387-12.985-11.125,5.808-5.539,1.745,1.828-2.137,2.4,2.452,2.048L312.027,423l2.159,2.163-2.279,2.569,2.557,1.924Z" transform="translate(73.112 -220.533)" stroke="rgba(0,0,0,0)" stroke-width="1" fill="url(#linear-gradient)"/>
    <path id="Path_1535" data-name="Path 1535" d="M259.333,425.748c-1.8,1.846-2.019,1.822-4.564-.8-1.635-1.686-1.6-2.223.336-3.988Z" transform="translate(100.911 -221.802)" stroke="rgba(0,0,0,0)" stroke-width="1" fill="url(#linear-gradient)"/>
    <path id="Path_1536" data-name="Path 1536" d="M382.169,339.122l-1.59-2.775,4.18-2.448,1.616,2.8Z" transform="translate(27.941 -171.775)" stroke="rgba(0,0,0,0)" stroke-width="1" fill="url(#linear-gradient)"/>
    <path id="Path_1537" data-name="Path 1537" d="M347.634,295.978l-2.415,4.183-2.767-1.564,2.387-4.23Z" transform="translate(49.849 -149.059)" stroke="rgba(0,0,0,0)" stroke-width="1" fill="url(#linear-gradient)"/>
    <path id="Path_1538" data-name="Path 1538" d="M392.394,364.9c-.273-1.091-.506-2.024-.769-3.077l4.611-1.245.821,3.049Z" transform="translate(21.593 -187.106)" stroke="rgba(0,0,0,0)" stroke-width="1" fill="url(#linear-gradient)"/>
    <path id="Path_1539" data-name="Path 1539" d="M366.215,317.3l-1.685-1.958,3.4-3.265,1.95,1.867Z" transform="translate(37.163 -159.234)" stroke="rgba(0,0,0,0)" stroke-width="1" fill="url(#linear-gradient)"/>
  </g>
</svg>
